<mxfile host="app.diagrams.net" modified="2023-08-20T13:30:29.898Z" agent="Mozilla/5.0 (Macintosh; Intel Mac OS X 10_15_7) AppleWebKit/537.36 (KHTML, like Gecko) Chrome/115.0.0.0 Safari/537.36" etag="eJ6OQ05kPYovS5ZlvSE8" version="21.6.8" type="github">
  <diagram id="kgpKYQtTHZ0yAKxKKP6v" name="Page-1">
    <mxGraphModel dx="1799" dy="1020" grid="1" gridSize="10" guides="1" tooltips="1" connect="1" arrows="1" fold="1" page="1" pageScale="1" pageWidth="850" pageHeight="1100" math="0" shadow="0">
      <root>
        <mxCell id="0" />
        <mxCell id="1" parent="0" />
        <mxCell id="toQJu7J1CVfGsCgQtRyt-1" value="«interface»&lt;br&gt;&lt;b&gt;IRetriveMovies&lt;/b&gt;" style="html=1;whiteSpace=wrap;" vertex="1" parent="1">
          <mxGeometry x="440" y="425" width="190" height="50" as="geometry" />
        </mxCell>
        <mxCell id="toQJu7J1CVfGsCgQtRyt-3" value="OMDBService" style="swimlane;fontStyle=1;align=center;verticalAlign=top;childLayout=stackLayout;horizontal=1;startSize=26;horizontalStack=0;resizeParent=1;resizeParentMax=0;resizeLast=0;collapsible=1;marginBottom=0;whiteSpace=wrap;html=1;" vertex="1" parent="1">
          <mxGeometry x="350" y="570" width="160" height="86" as="geometry" />
        </mxCell>
        <mxCell id="toQJu7J1CVfGsCgQtRyt-4" value="+ movie: String" style="text;strokeColor=none;fillColor=none;align=left;verticalAlign=top;spacingLeft=4;spacingRight=4;overflow=hidden;rotatable=0;points=[[0,0.5],[1,0.5]];portConstraint=eastwest;whiteSpace=wrap;html=1;" vertex="1" parent="toQJu7J1CVfGsCgQtRyt-3">
          <mxGeometry y="26" width="160" height="26" as="geometry" />
        </mxCell>
        <mxCell id="toQJu7J1CVfGsCgQtRyt-5" value="" style="line;strokeWidth=1;fillColor=none;align=left;verticalAlign=middle;spacingTop=-1;spacingLeft=3;spacingRight=3;rotatable=0;labelPosition=right;points=[];portConstraint=eastwest;strokeColor=inherit;" vertex="1" parent="toQJu7J1CVfGsCgQtRyt-3">
          <mxGeometry y="52" width="160" height="8" as="geometry" />
        </mxCell>
        <mxCell id="toQJu7J1CVfGsCgQtRyt-6" value="+ getMovie(String): Movie" style="text;strokeColor=none;fillColor=none;align=left;verticalAlign=top;spacingLeft=4;spacingRight=4;overflow=hidden;rotatable=0;points=[[0,0.5],[1,0.5]];portConstraint=eastwest;whiteSpace=wrap;html=1;" vertex="1" parent="toQJu7J1CVfGsCgQtRyt-3">
          <mxGeometry y="60" width="160" height="26" as="geometry" />
        </mxCell>
        <mxCell id="toQJu7J1CVfGsCgQtRyt-7" value="LocalMovieService" style="swimlane;fontStyle=1;align=center;verticalAlign=top;childLayout=stackLayout;horizontal=1;startSize=26;horizontalStack=0;resizeParent=1;resizeParentMax=0;resizeLast=0;collapsible=1;marginBottom=0;whiteSpace=wrap;html=1;" vertex="1" parent="1">
          <mxGeometry x="570" y="580" width="160" height="86" as="geometry" />
        </mxCell>
        <mxCell id="toQJu7J1CVfGsCgQtRyt-29" value="" style="endArrow=block;dashed=1;endFill=0;endSize=12;html=1;rounded=0;entryX=0.5;entryY=1;entryDx=0;entryDy=0;" edge="1" parent="toQJu7J1CVfGsCgQtRyt-7" target="toQJu7J1CVfGsCgQtRyt-27">
          <mxGeometry width="160" relative="1" as="geometry">
            <mxPoint x="130" as="sourcePoint" />
            <mxPoint x="290" as="targetPoint" />
          </mxGeometry>
        </mxCell>
        <mxCell id="toQJu7J1CVfGsCgQtRyt-8" value="+ movies: String" style="text;strokeColor=none;fillColor=none;align=left;verticalAlign=top;spacingLeft=4;spacingRight=4;overflow=hidden;rotatable=0;points=[[0,0.5],[1,0.5]];portConstraint=eastwest;whiteSpace=wrap;html=1;" vertex="1" parent="toQJu7J1CVfGsCgQtRyt-7">
          <mxGeometry y="26" width="160" height="26" as="geometry" />
        </mxCell>
        <mxCell id="toQJu7J1CVfGsCgQtRyt-9" value="" style="line;strokeWidth=1;fillColor=none;align=left;verticalAlign=middle;spacingTop=-1;spacingLeft=3;spacingRight=3;rotatable=0;labelPosition=right;points=[];portConstraint=eastwest;strokeColor=inherit;" vertex="1" parent="toQJu7J1CVfGsCgQtRyt-7">
          <mxGeometry y="52" width="160" height="8" as="geometry" />
        </mxCell>
        <mxCell id="toQJu7J1CVfGsCgQtRyt-10" value="+ getMovie(String): Movie" style="text;strokeColor=none;fillColor=none;align=left;verticalAlign=top;spacingLeft=4;spacingRight=4;overflow=hidden;rotatable=0;points=[[0,0.5],[1,0.5]];portConstraint=eastwest;whiteSpace=wrap;html=1;" vertex="1" parent="toQJu7J1CVfGsCgQtRyt-7">
          <mxGeometry y="60" width="160" height="26" as="geometry" />
        </mxCell>
        <mxCell id="toQJu7J1CVfGsCgQtRyt-12" value="" style="endArrow=block;dashed=1;endFill=0;endSize=12;html=1;rounded=0;entryX=0.25;entryY=1;entryDx=0;entryDy=0;exitX=0.5;exitY=0;exitDx=0;exitDy=0;" edge="1" parent="1" source="toQJu7J1CVfGsCgQtRyt-3" target="toQJu7J1CVfGsCgQtRyt-1">
          <mxGeometry width="160" relative="1" as="geometry">
            <mxPoint x="220" y="550" as="sourcePoint" />
            <mxPoint x="380" y="550" as="targetPoint" />
          </mxGeometry>
        </mxCell>
        <mxCell id="toQJu7J1CVfGsCgQtRyt-13" value="" style="endArrow=block;dashed=1;endFill=0;endSize=12;html=1;rounded=0;entryX=0.75;entryY=1;entryDx=0;entryDy=0;exitX=0.5;exitY=0;exitDx=0;exitDy=0;" edge="1" parent="1" source="toQJu7J1CVfGsCgQtRyt-7" target="toQJu7J1CVfGsCgQtRyt-1">
          <mxGeometry width="160" relative="1" as="geometry">
            <mxPoint x="460" y="570" as="sourcePoint" />
            <mxPoint x="525" y="490" as="targetPoint" />
          </mxGeometry>
        </mxCell>
        <mxCell id="toQJu7J1CVfGsCgQtRyt-18" value="MovieFacade" style="swimlane;fontStyle=1;align=center;verticalAlign=top;childLayout=stackLayout;horizontal=1;startSize=26;horizontalStack=0;resizeParent=1;resizeParentMax=0;resizeLast=0;collapsible=1;marginBottom=0;whiteSpace=wrap;html=1;" vertex="1" parent="1">
          <mxGeometry x="100" y="390" width="190" height="120" as="geometry" />
        </mxCell>
        <mxCell id="toQJu7J1CVfGsCgQtRyt-19" value="+ retriveMovies: IRetriveMovies" style="text;strokeColor=none;fillColor=none;align=left;verticalAlign=top;spacingLeft=4;spacingRight=4;overflow=hidden;rotatable=0;points=[[0,0.5],[1,0.5]];portConstraint=eastwest;whiteSpace=wrap;html=1;" vertex="1" parent="toQJu7J1CVfGsCgQtRyt-18">
          <mxGeometry y="26" width="190" height="26" as="geometry" />
        </mxCell>
        <mxCell id="toQJu7J1CVfGsCgQtRyt-20" value="" style="line;strokeWidth=1;fillColor=none;align=left;verticalAlign=middle;spacingTop=-1;spacingLeft=3;spacingRight=3;rotatable=0;labelPosition=right;points=[];portConstraint=eastwest;strokeColor=inherit;" vertex="1" parent="toQJu7J1CVfGsCgQtRyt-18">
          <mxGeometry y="52" width="190" height="8" as="geometry" />
        </mxCell>
        <mxCell id="toQJu7J1CVfGsCgQtRyt-21" value="+ retriveAllMovies(String): List&amp;lt;Movie&amp;gt;" style="text;strokeColor=none;fillColor=none;align=left;verticalAlign=top;spacingLeft=4;spacingRight=4;overflow=hidden;rotatable=0;points=[[0,0.5],[1,0.5]];portConstraint=eastwest;whiteSpace=wrap;html=1;" vertex="1" parent="toQJu7J1CVfGsCgQtRyt-18">
          <mxGeometry y="60" width="190" height="60" as="geometry" />
        </mxCell>
        <mxCell id="toQJu7J1CVfGsCgQtRyt-22" value="Use" style="endArrow=open;endSize=12;dashed=1;html=1;rounded=0;entryX=0;entryY=0.5;entryDx=0;entryDy=0;" edge="1" parent="1" target="toQJu7J1CVfGsCgQtRyt-1">
          <mxGeometry width="160" relative="1" as="geometry">
            <mxPoint x="290" y="454.5" as="sourcePoint" />
            <mxPoint x="450" y="454.5" as="targetPoint" />
          </mxGeometry>
        </mxCell>
        <mxCell id="toQJu7J1CVfGsCgQtRyt-23" value="MovieController" style="swimlane;fontStyle=1;align=center;verticalAlign=top;childLayout=stackLayout;horizontal=1;startSize=26;horizontalStack=0;resizeParent=1;resizeParentMax=0;resizeLast=0;collapsible=1;marginBottom=0;whiteSpace=wrap;html=1;" vertex="1" parent="1">
          <mxGeometry x="50" y="70" width="340" height="216" as="geometry" />
        </mxCell>
        <mxCell id="toQJu7J1CVfGsCgQtRyt-24" value="+ movieService: IMovieService" style="text;strokeColor=none;fillColor=none;align=left;verticalAlign=top;spacingLeft=4;spacingRight=4;overflow=hidden;rotatable=0;points=[[0,0.5],[1,0.5]];portConstraint=eastwest;whiteSpace=wrap;html=1;" vertex="1" parent="toQJu7J1CVfGsCgQtRyt-23">
          <mxGeometry y="26" width="340" height="26" as="geometry" />
        </mxCell>
        <mxCell id="toQJu7J1CVfGsCgQtRyt-33" value="+ movieFacade: MovieFacade" style="text;strokeColor=none;fillColor=none;align=left;verticalAlign=top;spacingLeft=4;spacingRight=4;overflow=hidden;rotatable=0;points=[[0,0.5],[1,0.5]];portConstraint=eastwest;whiteSpace=wrap;html=1;" vertex="1" parent="toQJu7J1CVfGsCgQtRyt-23">
          <mxGeometry y="52" width="340" height="26" as="geometry" />
        </mxCell>
        <mxCell id="toQJu7J1CVfGsCgQtRyt-25" value="" style="line;strokeWidth=1;fillColor=none;align=left;verticalAlign=middle;spacingTop=-1;spacingLeft=3;spacingRight=3;rotatable=0;labelPosition=right;points=[];portConstraint=eastwest;strokeColor=inherit;" vertex="1" parent="toQJu7J1CVfGsCgQtRyt-23">
          <mxGeometry y="78" width="340" height="8" as="geometry" />
        </mxCell>
        <mxCell id="toQJu7J1CVfGsCgQtRyt-26" value="+ save(Movie): Movie" style="text;strokeColor=none;fillColor=none;align=left;verticalAlign=top;spacingLeft=4;spacingRight=4;overflow=hidden;rotatable=0;points=[[0,0.5],[1,0.5]];portConstraint=eastwest;whiteSpace=wrap;html=1;" vertex="1" parent="toQJu7J1CVfGsCgQtRyt-23">
          <mxGeometry y="86" width="340" height="26" as="geometry" />
        </mxCell>
        <mxCell id="toQJu7J1CVfGsCgQtRyt-30" value="+ update(type): Movie" style="text;strokeColor=none;fillColor=none;align=left;verticalAlign=top;spacingLeft=4;spacingRight=4;overflow=hidden;rotatable=0;points=[[0,0.5],[1,0.5]];portConstraint=eastwest;whiteSpace=wrap;html=1;" vertex="1" parent="toQJu7J1CVfGsCgQtRyt-23">
          <mxGeometry y="112" width="340" height="26" as="geometry" />
        </mxCell>
        <mxCell id="toQJu7J1CVfGsCgQtRyt-32" value="+ delete(type): Movie" style="text;strokeColor=none;fillColor=none;align=left;verticalAlign=top;spacingLeft=4;spacingRight=4;overflow=hidden;rotatable=0;points=[[0,0.5],[1,0.5]];portConstraint=eastwest;whiteSpace=wrap;html=1;" vertex="1" parent="toQJu7J1CVfGsCgQtRyt-23">
          <mxGeometry y="138" width="340" height="26" as="geometry" />
        </mxCell>
        <mxCell id="toQJu7J1CVfGsCgQtRyt-31" value="+ RetriveAllMovie(type): List&amp;lt;Movies&amp;gt;" style="text;strokeColor=none;fillColor=none;align=left;verticalAlign=top;spacingLeft=4;spacingRight=4;overflow=hidden;rotatable=0;points=[[0,0.5],[1,0.5]];portConstraint=eastwest;whiteSpace=wrap;html=1;" vertex="1" parent="toQJu7J1CVfGsCgQtRyt-23">
          <mxGeometry y="164" width="340" height="52" as="geometry" />
        </mxCell>
        <mxCell id="toQJu7J1CVfGsCgQtRyt-35" value="" style="endArrow=open;endFill=1;endSize=12;html=1;rounded=0;entryX=0.5;entryY=0;entryDx=0;entryDy=0;" edge="1" parent="toQJu7J1CVfGsCgQtRyt-23" target="toQJu7J1CVfGsCgQtRyt-18">
          <mxGeometry width="160" relative="1" as="geometry">
            <mxPoint x="90" y="216" as="sourcePoint" />
            <mxPoint x="250" y="216" as="targetPoint" />
          </mxGeometry>
        </mxCell>
        <mxCell id="toQJu7J1CVfGsCgQtRyt-27" value="«interface»&lt;br&gt;&lt;b&gt;ILocalMovieService&lt;/b&gt;" style="html=1;whiteSpace=wrap;" vertex="1" parent="1">
          <mxGeometry x="730" y="420" width="160" height="50" as="geometry" />
        </mxCell>
        <mxCell id="toQJu7J1CVfGsCgQtRyt-37" value="" style="endArrow=block;dashed=1;endFill=0;endSize=12;html=1;rounded=0;entryX=0.544;entryY=0;entryDx=0;entryDy=0;exitX=0.5;exitY=0;exitDx=0;exitDy=0;entryPerimeter=0;" edge="1" parent="1" target="toQJu7J1CVfGsCgQtRyt-27">
          <mxGeometry width="160" relative="1" as="geometry">
            <mxPoint x="390" y="200" as="sourcePoint" />
            <mxPoint x="455" y="120" as="targetPoint" />
          </mxGeometry>
        </mxCell>
      </root>
    </mxGraphModel>
  </diagram>
</mxfile>
